{"title":"National Lampoons Dirty Movie.2011.DvDRip.x264.Feel-Free","uid":6181281,"size":862187511,"categoryP":"video","categoryS":"movies","magnet":"?xt=urn:btih:fe264eff361fbc8efdfd310fc8c62544ee1c30b3&amp;dn=National+Lampoons+Dirty+Movie.2011.DvDRip.x264.Feel-Free&amp;tr=udp%3A%2F%2Ftracker.openbittorrent.com%3A80&amp;tr=udp%3A%2F%2Fopen.demonii.com%3A1337&amp;tr=udp%3A%2F%2Ftracker.coppersurfer.tk%3A6969&amp;tr=udp%3A%2F%2Fexodus.desync.com%3A6969","seeders":0,"leechers":0,"uploader":"neon","files":-1,"time":1297963750,"description":"Genre:Comedy\nLanguage:English\n &lt;a href=&quot; http://www.imdb.com/title/tt1107812/&quot; rel=&quot;nofollow&quot; target=&quot;_NEW&quot;&gt; http://www.imdb.com/title/tt1107812/&lt;/a&gt;\nSource:DVD\n\n\nFormat : MPEG-4\nFormat profile : Base Media\nCodec ID : isom\nFile size : 820 MiB\nDuration : 1h 30mn\nOverall bit rate : 1 260 Kbps\nMovie name : National.Lampoons.Dirty.Movie.2011.DvDRip.x264.Feel-Free\n\nVideo\nFormat settings, CABAC : Yes\nFormat settings, ReFrames : 4 frames\nFormat settings, GOP : M=4, N=16\nCodec ID : avc1\nCodec ID/Info : Advanced Video Coding\nDuration : 1h 30mn\nBit rate mode : Variable\nBit rate : 874 Kbps\nWidth : 720 pixels\nHeight : 384 pixels\nDisplay aspect ratio : 1.875\nFrame rate mode : Constant\nFrame rate : 23.976 fps\nColor space : YUV\nChroma subsampling : 4:2:0\nBit depth : 8 bits\nScan type : Progressive\nBits/(Pixel*Frame) : 0.132\nStream size : 566 MiB (69%)\nWriting library : x264\n\nAudio\nID : 2\nFormat : AAC\nFormat/Info : Advanced Audio Codec\nFormat version : Version 4\nFormat profile : LC\nCodec ID : 40\nDuration : 1h 30mn\nBit rate mode : Variable\nBit rate : 384 Kbps\nChannel(s) : 6 channels\nChannel positions : Front: L C R, Side: L R, LFE\nSampling rate : 48.0 KHz\nStream size : 250 MiB (30%)\n\n\n\nPlot:\nA sketch comedy film with a back story about the awful people behind the awful movie\n &lt;a href=&quot;\nhttp://www.postimg.com/29000/28353.jpg&quot; rel=&quot;nofollow&quot; target=&quot;_NEW&quot;&gt;\nhttp://www.postimg.com/29000/28353.jpg&lt;/a&gt; &lt;a href=&quot;\nhttp://www.postimg.com/29000/28354.jpg&quot; rel=&quot;nofollow&quot; target=&quot;_NEW&quot;&gt;\nhttp://www.postimg.com/29000/28354.jpg&lt;/a&gt; &lt;a href=&quot;\nhttp://www.postimg.com/29000/28357.jpg&quot; rel=&quot;nofollow&quot; target=&quot;_NEW&quot;&gt;\nhttp://www.postimg.com/29000/28357.jpg&lt;/a&gt; &lt;a href=&quot;\nhttp://www.postimg.com/29000/28359.jpg&quot; rel=&quot;nofollow&quot; target=&quot;_NEW&quot;&gt;\nhttp://www.postimg.com/29000/28359.jpg&lt;/a&gt;","torrent":{"xt":"urn:btih:fe264eff361fbc8efdfd310fc8c62544ee1c30b3","amp;dn":"National+Lampoons+Dirty+Movie.2011.DvDRip.x264.Feel-Free","amp;tr":["udp%3A%2F%2Ftracker.openbittorrent.com%3A80","udp%3A%2F%2Fopen.demonii.com%3A1337","udp%3A%2F%2Ftracker.coppersurfer.tk%3A6969","udp%3A%2F%2Fexodus.desync.com%3A6969"],"infoHash":"fe264eff361fbc8efdfd310fc8c62544ee1c30b3","infoHashBuffer":{"type":"Buffer","data":[254,38,78,255,54,31,188,142,253,253,49,15,200,198,37,68,238,28,48,179]},"announce":[],"urlList":[]}}